<svg xmlns="http://www.w3.org/2000/svg" xmlns:xlink="http://www.w3.org/1999/xlink" width="500" zoomAndPan="magnify" viewBox="0 0 375 374.999991" height="500" preserveAspectRatio="xMidYMid meet" version="1.0"><defs><clipPath id="59c3886764"><path d="M 41.105469 300 L 184 300 L 184 372 L 41.105469 372 Z M 41.105469 300 " clip-rule="nonzero"/></clipPath><clipPath id="7121383943"><path d="M 80 4 L 333.605469 4 L 333.605469 342 L 80 342 Z M 80 4 " clip-rule="nonzero"/></clipPath></defs><g clip-path="url(#59c3886764)"><path fill="#564787" d="M 152.953125 301.503906 C 148.027344 299.730469 142.640625 302.328125 140.898438 307.242188 C 139.152344 312.160156 141.722656 317.5625 146.636719 319.3125 C 159.15625 323.769531 164.859375 329.789062 164.859375 333.496094 C 164.859375 341.28125 143.996094 353.042969 112.554688 353.042969 C 81.101562 353.042969 60.242188 341.28125 60.242188 333.496094 C 60.242188 329.792969 65.9375 323.769531 78.472656 319.3125 C 83.386719 317.5625 85.953125 312.160156 84.210938 307.242188 C 82.464844 302.328125 77.082031 299.730469 72.15625 301.503906 C 52.582031 308.46875 41.363281 320.128906 41.363281 333.496094 C 41.363281 355.417969 71.96875 371.945312 112.554688 371.945312 C 153.136719 371.945312 183.730469 355.417969 183.730469 333.496094 C 183.730469 320.128906 172.511719 308.460938 152.953125 301.503906 " fill-opacity="1" fill-rule="nonzero"/></g><g clip-path="url(#7121383943)"><path fill="#564787" d="M 112.554688 50.484375 C 105.070312 50.484375 98.988281 44.386719 98.988281 36.894531 C 98.988281 29.40625 105.070312 23.308594 112.554688 23.308594 C 120.039062 23.308594 126.117188 29.40625 126.117188 36.894531 C 126.117188 44.386719 120.039062 50.484375 112.554688 50.484375 Z M 333.339844 56.257812 C 248.238281 -0.0351562 204.125 114.746094 121.988281 70.917969 L 121.988281 67.816406 C 135.257812 63.738281 144.988281 51.5 144.988281 36.894531 C 144.988281 18.980469 130.441406 4.40625 112.554688 4.40625 C 94.664062 4.40625 80.121094 18.980469 80.121094 36.894531 C 80.121094 51.5 89.851562 63.738281 103.117188 67.816406 L 103.117188 331.792969 C 103.117188 337.011719 107.34375 341.242188 112.554688 341.242188 C 117.765625 341.242188 121.988281 337.011719 121.988281 331.792969 L 121.988281 218.957031 C 204.125 262.800781 248.238281 148.011719 333.339844 204.296875 C 333.34375 145.078125 333.34375 115.476562 333.339844 56.257812 " fill-opacity="1" fill-rule="nonzero"/></g></svg>