<svg xmlns="http://www.w3.org/2000/svg" xmlns:xlink="http://www.w3.org/1999/xlink" width="1692" zoomAndPan="magnify" viewBox="0 0 1269 1268.999945" height="1692" preserveAspectRatio="xMidYMid meet" version="1.0"><defs><clipPath id="b61bf065a1"><path d="M 0.527344 0.421875 L 1268.683594 0.421875 L 1268.683594 1268.578125 L 0.527344 1268.578125 Z M 0.527344 0.421875 " clip-rule="nonzero"/></clipPath><clipPath id="87ccce9382"><path d="M 634.605469 0.421875 C 284.414062 0.421875 0.527344 284.308594 0.527344 634.5 C 0.527344 984.691406 284.414062 1268.578125 634.605469 1268.578125 C 984.796875 1268.578125 1268.683594 984.691406 1268.683594 634.5 C 1268.683594 284.308594 984.796875 0.421875 634.605469 0.421875 Z M 634.605469 0.421875 " clip-rule="nonzero"/></clipPath><clipPath id="81f4dbdf47"><path d="M 97.796875 129 L 1172.546875 129 L 1172.546875 1146.941406 L 97.796875 1146.941406 Z M 97.796875 129 " clip-rule="nonzero"/></clipPath><clipPath id="496c578fe9"><path d="M 398.644531 320.304688 L 871.894531 320.304688 L 871.894531 793.554688 L 398.644531 793.554688 Z M 398.644531 320.304688 " clip-rule="nonzero"/></clipPath></defs><g clip-path="url(#b61bf065a1)"><g clip-path="url(#87ccce9382)"><path fill="#ffffff" d="M 0.527344 0.421875 L 1268.683594 0.421875 L 1268.683594 1268.578125 L 0.527344 1268.578125 Z M 0.527344 0.421875 " fill-opacity="1" fill-rule="nonzero"/></g></g><g clip-path="url(#81f4dbdf47)"><path fill="#100f0d" d="M 1003.589844 713.375 C 1003.589844 732.484375 991.359375 749.445312 973.234375 755.515625 C 886.757812 784.25 767.144531 802.027344 635.097656 802.027344 C 503.097656 802.027344 383.488281 784.25 296.960938 755.515625 C 278.882812 749.445312 266.613281 732.484375 266.613281 713.375 L 266.613281 344.21875 C 266.613281 321.839844 284.734375 303.726562 307.144531 303.726562 L 963.097656 303.726562 C 985.503906 303.726562 1003.589844 321.839844 1003.589844 344.21875 Z M 1003.589844 891.242188 C 1003.589844 936.335938 960.929688 972.929688 908.347656 972.929688 L 789.429688 972.929688 C 761.644531 972.929688 752.753906 940.847656 777.597656 930.140625 L 966.742188 848.757812 C 983.648438 841.484375 1003.589844 852.015625 1003.589844 868.273438 Z M 480.773438 972.929688 L 361.855469 972.929688 C 309.269531 972.929688 266.613281 936.335938 266.613281 891.242188 L 266.613281 868.273438 C 266.613281 852.015625 286.554688 841.484375 303.460938 848.757812 L 492.605469 930.140625 C 517.445312 940.847656 508.558594 972.929688 480.773438 972.929688 Z M 440.019531 192.261719 C 440.019531 185.585938 445.4375 180.207031 452.070312 180.207031 L 818.175781 180.207031 C 824.8125 180.207031 830.179688 185.585938 830.179688 192.261719 L 830.179688 250.527344 C 830.179688 257.203125 824.8125 262.582031 818.175781 262.582031 L 452.070312 262.582031 C 445.4375 262.582031 440.019531 257.203125 440.019531 250.527344 Z M 1153.328125 386.09375 L 1141.96875 386.09375 L 1141.96875 375.925781 C 1141.96875 356.851562 1126.460938 341.335938 1107.382812 341.335938 L 1064.628906 341.335938 L 1064.628906 242.378906 C 1064.628906 229.367188 1061.769531 217.015625 1056.730469 205.871094 C 1045.027344 179.859375 1020.367188 162.171875 992.40625 156.625 C 987.203125 155.578125 982.003906 154.59375 976.839844 153.632812 C 811.757812 123.238281 635.097656 129.746094 635.097656 129.746094 C 635.097656 129.746094 458.441406 123.238281 293.40625 153.632812 C 288.203125 154.59375 283.042969 155.578125 277.84375 156.625 C 249.878906 162.171875 225.210938 179.859375 213.460938 205.871094 C 208.480469 217.015625 205.617188 229.367188 205.617188 242.378906 L 205.617188 341.335938 L 162.867188 341.335938 C 143.789062 341.335938 128.273438 356.851562 128.273438 375.925781 L 128.273438 386.09375 L 116.914062 386.09375 C 106.429688 386.09375 97.929688 394.589844 97.929688 405.082031 L 97.929688 553.570312 C 97.929688 564.054688 106.429688 572.558594 116.914062 572.558594 L 165.644531 572.558594 C 176.128906 572.558594 184.628906 564.054688 184.628906 553.570312 L 184.628906 405.082031 C 184.628906 394.589844 176.128906 386.09375 165.644531 386.09375 L 154.285156 386.09375 L 154.285156 375.925781 C 154.285156 371.199219 158.132812 367.355469 162.867188 367.355469 L 205.617188 367.355469 L 205.617188 942.625 C 205.617188 989.128906 233.257812 1029.125 272.972656 1047.210938 L 272.972656 1124.269531 C 272.972656 1136.824219 283.144531 1146.992188 295.695312 1146.992188 L 413.875 1146.992188 C 426.425781 1146.992188 436.597656 1136.824219 436.597656 1124.269531 L 436.597656 1057.503906 L 833.652344 1057.503906 L 833.652344 1124.269531 C 833.652344 1136.824219 843.820312 1146.992188 856.375 1146.992188 L 974.550781 1146.992188 C 987.105469 1146.992188 997.273438 1136.824219 997.273438 1124.269531 L 997.273438 1047.210938 C 1036.992188 1029.125 1064.628906 989.128906 1064.628906 942.625 L 1064.628906 367.355469 L 1107.382812 367.355469 C 1112.109375 367.355469 1115.957031 371.199219 1115.957031 375.925781 L 1115.957031 386.09375 L 1104.605469 386.09375 C 1094.113281 386.09375 1085.617188 394.589844 1085.617188 405.082031 L 1085.617188 553.570312 C 1085.617188 564.054688 1094.113281 572.558594 1104.605469 572.558594 L 1153.328125 572.558594 C 1163.824219 572.558594 1172.320312 564.054688 1172.320312 553.570312 L 1172.320312 405.082031 C 1172.320312 394.589844 1163.824219 386.09375 1153.328125 386.09375 " fill-opacity="1" fill-rule="nonzero"/></g><g clip-path="url(#496c578fe9)"><path fill="#000000" d="M 635.269531 320.304688 C 504.792969 320.304688 398.644531 426.453125 398.644531 556.929688 C 398.644531 687.410156 504.792969 793.554688 635.269531 793.554688 C 765.746094 793.554688 871.894531 687.410156 871.894531 556.929688 C 871.894531 426.453125 765.746094 320.304688 635.269531 320.304688 Z M 635.269531 747.757812 C 530.046875 747.757812 444.445312 662.152344 444.445312 556.929688 C 444.445312 451.707031 530.046875 366.105469 635.269531 366.105469 C 740.492188 366.105469 826.097656 451.707031 826.097656 556.929688 C 826.097656 662.152344 740.492188 747.757812 635.269531 747.757812 Z M 635.269531 747.757812 " fill-opacity="1" fill-rule="nonzero"/></g><path fill="#000000" d="M 630.609375 490.066406 L 684.808594 490.066406 C 697.460938 490.066406 707.710938 479.816406 707.710938 467.167969 C 707.710938 454.519531 697.460938 444.269531 684.808594 444.269531 L 658.09375 444.269531 L 658.09375 441.210938 C 658.09375 428.5625 647.84375 418.3125 635.195312 418.3125 C 622.546875 418.3125 612.296875 428.5625 612.296875 441.210938 L 612.296875 447.101562 C 583.851562 455.152344 562.832031 481.0625 562.832031 512.050781 C 562.832031 530.171875 569.875 547.203125 582.824219 560.144531 C 595.75 572.839844 612.722656 579.828125 630.609375 579.828125 L 639.929688 579.828125 C 645.816406 579.828125 651.339844 582.109375 655.484375 586.246094 C 659.628906 590.390625 661.910156 595.921875 661.910156 601.8125 C 661.910156 613.933594 652.050781 623.792969 639.929688 623.792969 L 585.730469 623.792969 C 573.078125 623.792969 562.832031 634.042969 562.832031 646.695312 C 562.832031 659.34375 573.078125 669.59375 585.730469 669.59375 L 612.296875 669.59375 L 612.296875 672.648438 C 612.296875 685.300781 622.546875 695.546875 635.195312 695.546875 C 647.84375 695.546875 658.09375 685.300781 658.09375 672.648438 L 658.09375 666.804688 C 686.617188 658.804688 707.710938 632.855469 707.710938 601.8125 C 707.710938 583.691406 700.664062 566.660156 687.867188 553.867188 C 675.074219 541.074219 658.050781 534.03125 639.929688 534.03125 L 630.613281 534.03125 C 624.796875 534.03125 619.222656 531.699219 615.054688 527.613281 C 610.910156 523.46875 608.628906 517.9375 608.628906 512.050781 C 608.628906 499.929688 618.492188 490.066406 630.609375 490.066406 Z M 630.609375 490.066406 " fill-opacity="1" fill-rule="nonzero"/></svg>