<svg xmlns="http://www.w3.org/2000/svg" xmlns:xlink="http://www.w3.org/1999/xlink" width="1434" zoomAndPan="magnify" viewBox="0 0 1075.5 1024.499969" height="1366" preserveAspectRatio="xMidYMid meet" version="1.0"><defs><clipPath id="5e5bf8f7ed"><path d="M 0.308594 6 L 1074.988281 6 L 1074.988281 1023.917969 L 0.308594 1023.917969 Z M 0.308594 6 " clip-rule="nonzero"/></clipPath><clipPath id="5b34755e60"><path d="M 301.152344 197.300781 L 774.390625 197.300781 L 774.390625 670.539062 L 301.152344 670.539062 Z M 301.152344 197.300781 " clip-rule="nonzero"/></clipPath></defs><g clip-path="url(#5e5bf8f7ed)"><path fill="#ffffff" d="M 906.078125 590.363281 C 906.078125 609.472656 893.847656 626.429688 875.726562 632.5 C 789.253906 661.234375 669.640625 679.011719 537.597656 679.011719 C 405.601562 679.011719 285.992188 661.234375 199.46875 632.5 C 181.390625 626.429688 169.121094 609.472656 169.121094 590.363281 L 169.121094 221.210938 C 169.121094 198.835938 187.242188 180.722656 209.652344 180.722656 L 865.589844 180.722656 C 887.996094 180.722656 906.078125 198.835938 906.078125 221.210938 Z M 906.078125 768.226562 C 906.078125 813.316406 863.421875 849.910156 810.839844 849.910156 L 691.925781 849.910156 C 664.144531 849.910156 655.25 817.828125 680.09375 807.121094 L 869.234375 725.742188 C 886.140625 718.464844 906.078125 729 906.078125 745.257812 Z M 383.277344 849.910156 L 264.363281 849.910156 C 211.777344 849.910156 169.121094 813.316406 169.121094 768.226562 L 169.121094 745.257812 C 169.121094 729 189.066406 718.464844 205.96875 725.742188 L 395.109375 807.121094 C 419.945312 817.828125 411.058594 849.910156 383.277344 849.910156 Z M 342.523438 69.261719 C 342.523438 62.585938 347.941406 57.207031 354.574219 57.207031 L 720.671875 57.207031 C 727.308594 57.207031 732.675781 62.585938 732.675781 69.261719 L 732.675781 127.527344 C 732.675781 134.199219 727.308594 139.578125 720.671875 139.578125 L 354.574219 139.578125 C 347.941406 139.578125 342.523438 134.199219 342.523438 127.527344 Z M 1055.816406 263.085938 L 1044.457031 263.085938 L 1044.457031 252.917969 C 1044.457031 233.847656 1028.949219 218.332031 1009.871094 218.332031 L 967.117188 218.332031 L 967.117188 119.375 C 967.117188 106.363281 964.257812 94.015625 959.222656 82.871094 C 947.515625 56.859375 922.859375 39.171875 894.898438 33.625 C 889.695312 32.578125 884.496094 31.589844 879.332031 30.632812 C 714.253906 0.238281 537.597656 6.746094 537.597656 6.746094 C 537.597656 6.746094 360.949219 0.238281 195.914062 30.632812 C 190.710938 31.589844 185.550781 32.578125 180.351562 33.625 C 152.390625 39.171875 127.71875 56.859375 115.972656 82.871094 C 110.992188 94.015625 108.125 106.363281 108.125 119.375 L 108.125 218.332031 L 65.378906 218.332031 C 46.300781 218.332031 30.785156 233.847656 30.785156 252.917969 L 30.785156 263.085938 L 19.425781 263.085938 C 8.941406 263.085938 0.441406 271.585938 0.441406 282.078125 L 0.441406 430.558594 C 0.441406 441.042969 8.941406 449.550781 19.425781 449.550781 L 68.152344 449.550781 C 78.636719 449.550781 87.140625 441.042969 87.140625 430.558594 L 87.140625 282.078125 C 87.140625 271.585938 78.636719 263.085938 68.152344 263.085938 L 56.796875 263.085938 L 56.796875 252.917969 C 56.796875 248.191406 60.644531 244.351562 65.378906 244.351562 L 108.125 244.351562 L 108.125 819.605469 C 108.125 866.109375 135.765625 906.105469 175.480469 924.1875 L 175.480469 1001.246094 C 175.480469 1013.800781 185.652344 1023.96875 198.203125 1023.96875 L 316.378906 1023.96875 C 328.929688 1023.96875 339.101562 1013.800781 339.101562 1001.246094 L 339.101562 934.484375 L 736.148438 934.484375 L 736.148438 1001.246094 C 736.148438 1013.800781 746.316406 1023.96875 758.871094 1023.96875 L 877.042969 1023.96875 C 889.597656 1023.96875 899.765625 1013.800781 899.765625 1001.246094 L 899.765625 924.1875 C 939.480469 906.105469 967.117188 866.109375 967.117188 819.605469 L 967.117188 244.351562 L 1009.871094 244.351562 C 1014.597656 244.351562 1018.445312 248.191406 1018.445312 252.917969 L 1018.445312 263.085938 L 1007.09375 263.085938 C 996.601562 263.085938 988.105469 271.585938 988.105469 282.078125 L 988.105469 430.558594 C 988.105469 441.042969 996.601562 449.550781 1007.09375 449.550781 L 1055.816406 449.550781 C 1066.308594 449.550781 1074.808594 441.042969 1074.808594 430.558594 L 1074.808594 282.078125 C 1074.808594 271.585938 1066.308594 263.085938 1055.816406 263.085938 " fill-opacity="1" fill-rule="nonzero"/></g><g clip-path="url(#5b34755e60)"><path fill="#ffffff" d="M 537.769531 197.300781 C 407.296875 197.300781 301.152344 303.445312 301.152344 433.921875 C 301.152344 564.394531 407.296875 670.539062 537.769531 670.539062 C 668.246094 670.539062 774.390625 564.394531 774.390625 433.921875 C 774.390625 303.445312 668.246094 197.300781 537.769531 197.300781 Z M 537.769531 624.742188 C 432.550781 624.742188 346.949219 539.140625 346.949219 433.921875 C 346.949219 328.699219 432.550781 243.097656 537.769531 243.097656 C 642.992188 243.097656 728.59375 328.699219 728.59375 433.921875 C 728.59375 539.140625 642.992188 624.742188 537.769531 624.742188 Z M 537.769531 624.742188 " fill-opacity="1" fill-rule="nonzero"/></g><path fill="#ffffff" d="M 533.109375 367.058594 L 587.308594 367.058594 C 599.957031 367.058594 610.207031 356.808594 610.207031 344.160156 C 610.207031 331.511719 599.957031 321.261719 587.308594 321.261719 L 560.59375 321.261719 L 560.59375 318.203125 C 560.59375 305.554688 550.34375 295.304688 537.695312 295.304688 C 525.046875 295.304688 514.796875 305.554688 514.796875 318.203125 L 514.796875 324.09375 C 486.355469 332.144531 465.332031 358.054688 465.332031 389.039062 C 465.332031 407.160156 472.375 424.191406 485.324219 437.132812 C 498.25 449.828125 515.222656 456.820312 533.109375 456.820312 L 542.429688 456.820312 C 548.316406 456.820312 553.839844 459.101562 557.984375 463.238281 C 562.128906 467.382812 564.410156 472.914062 564.410156 478.800781 C 564.410156 490.921875 554.550781 500.78125 542.429688 500.78125 L 488.230469 500.78125 C 475.582031 500.78125 465.332031 511.03125 465.332031 523.683594 C 465.332031 536.332031 475.582031 546.582031 488.230469 546.582031 L 514.796875 546.582031 L 514.796875 549.636719 C 514.796875 562.285156 525.046875 572.535156 537.695312 572.535156 C 550.34375 572.535156 560.59375 562.285156 560.59375 549.636719 L 560.59375 543.792969 C 589.113281 535.792969 610.207031 509.84375 610.207031 478.800781 C 610.207031 460.679688 603.164062 443.648438 590.367188 430.855469 C 577.574219 418.066406 560.550781 411.023438 542.429688 411.023438 L 533.113281 411.023438 C 527.296875 411.023438 521.722656 408.6875 517.554688 404.605469 C 513.410156 400.460938 511.128906 394.929688 511.128906 389.039062 C 511.128906 376.921875 520.992188 367.058594 533.109375 367.058594 Z M 533.109375 367.058594 " fill-opacity="1" fill-rule="nonzero"/></svg>