<svg xmlns="http://www.w3.org/2000/svg" xmlns:xlink="http://www.w3.org/1999/xlink" width="5000" zoomAndPan="magnify" viewBox="0 0 3750 1499.999933" height="2000" preserveAspectRatio="xMidYMid meet" version="1.0"><path fill="#dbcbd8" d="M 1079.605469 543.101562 C 944.726562 544.574219 836.578125 655.140625 838.0625 790.023438 C 839.535156 924.886719 950.089844 1033.039062 1084.976562 1031.558594 C 1134.789062 1031.015625 1183.238281 1015.242188 1223.851562 986.363281 L 1363.351562 1125.832031 C 1379.324219 1141.597656 1405.074219 1141.433594 1420.839844 1125.441406 C 1436.445312 1109.621094 1436.445312 1084.179688 1420.839844 1068.339844 L 1281.34375 928.867188 C 1359.523438 818.957031 1333.777344 666.460938 1223.851562 588.273438 C 1181.742188 558.355469 1131.25 542.53125 1079.605469 543.101562 Z M 1076.667969 585.371094 C 1188.054688 582.257812 1280.886719 670.019531 1283.996094 781.425781 C 1284.042969 783.386719 1284.085938 785.347656 1284.085938 787.300781 C 1284.128906 898.730469 1193.820312 989.105469 1082.402344 989.171875 C 970.964844 989.214844 880.585938 898.925781 880.53125 787.484375 C 880.53125 787.425781 880.53125 787.375 880.53125 787.308594 C 880.410156 677.984375 967.371094 588.429688 1076.667969 585.371094 Z M 1076.667969 585.371094 " fill-opacity="1" fill-rule="nonzero"/><path fill="#dbcbd8" d="M 1027.832031 637.671875 C 1038.878906 633.722656 1051.03125 639.457031 1054.992188 650.5 C 1058.921875 661.464844 1053.292969 673.554688 1042.363281 677.601562 C 996.230469 694.390625 965.523438 738.238281 965.523438 787.320312 C 965.523438 799.0625 956.015625 808.570312 944.285156 808.570312 C 932.554688 808.570312 923.046875 799.0625 923.046875 787.320312 C 923.050781 720.375 964.917969 660.566406 1027.832031 637.671875 Z M 1027.832031 637.671875 " fill-opacity="1" fill-rule="nonzero"/></svg>